<svg width="16" height="15" viewBox="0 0 16 15" fill="none" xmlns="http://www.w3.org/2000/svg">
<path d="M8.49815 3.62495C6.36886 3.62495 4.65137 5.32827 4.65137 7.43999C4.65137 9.55171 6.36886 11.255 8.49815 11.255C10.6274 11.255 12.3449 9.55171 12.3449 7.43999C12.3449 5.32827 10.6274 3.62495 8.49815 3.62495ZM8.49815 9.92026C7.12215 9.92026 5.99724 8.80796 5.99724 7.43999C5.99724 6.07202 7.1188 4.95972 8.49815 4.95972C9.8775 4.95972 10.9991 6.07202 10.9991 7.43999C10.9991 8.80796 9.87415 9.92026 8.49815 9.92026ZM13.3995 3.4689C13.3995 3.96362 12.9978 4.35874 12.5023 4.35874C12.0034 4.35874 11.605 3.9603 11.605 3.4689C11.605 2.97749 12.0068 2.57905 12.5023 2.57905C12.9978 2.57905 13.3995 2.97749 13.3995 3.4689ZM15.9473 4.37202C15.8904 3.18003 15.6159 2.12417 14.7354 1.25425C13.8582 0.384326 12.7935 0.112061 11.5916 0.0522949C10.3529 -0.0174316 6.64005 -0.0174316 5.40131 0.0522949C4.20275 0.10874 3.13811 0.381006 2.2576 1.25093C1.3771 2.12085 1.10591 3.17671 1.04565 4.3687C0.975343 5.59722 0.975343 9.27944 1.04565 10.508C1.10256 11.7 1.3771 12.7558 2.2576 13.6257C3.13811 14.4957 4.1994 14.7679 5.40131 14.8277C6.64005 14.8974 10.3529 14.8974 11.5916 14.8277C12.7935 14.7712 13.8582 14.499 14.7354 13.6257C15.6125 12.7558 15.887 11.7 15.9473 10.508C16.0176 9.27944 16.0176 5.60054 15.9473 4.37202ZM14.347 11.8261C14.0859 12.4769 13.5803 12.9783 12.9208 13.2406C11.9331 13.6291 9.58958 13.5394 8.49815 13.5394C7.40672 13.5394 5.05982 13.6257 4.07553 13.2406C3.41933 12.9816 2.9138 12.4802 2.64931 11.8261C2.2576 10.8466 2.348 8.52241 2.348 7.43999C2.348 6.35757 2.26095 4.03003 2.64931 3.05386C2.91045 2.40308 3.41599 1.90171 4.07553 1.6394C5.06317 1.25093 7.40672 1.34058 8.49815 1.34058C9.58958 1.34058 11.9365 1.25425 12.9208 1.6394C13.577 1.89839 14.0825 2.39976 14.347 3.05386C14.7387 4.03335 14.6483 6.35757 14.6483 7.43999C14.6483 8.52241 14.7387 10.85 14.347 11.8261Z" fill="#0E0E0E"/>
</svg>
